<svg xmlns="http://www.w3.org/2000/svg" width="13.724" height="14.978" viewBox="0 0 13.724 14.978">
  <path id="Path_688" data-name="Path 688" d="M10.982,20.664a.956.956,0,0,1-.953-.955v-3.05L4.622,7.111a.955.955,0,0,1,.831-1.425h10.4a.954.954,0,0,1,.826,1.433L15.822,8.6h1.445a.955.955,0,0,1,.822,1.44l-3.9,6.628v2.483a.954.954,0,0,1-.723.926l-2.249.562A.968.968,0,0,1,10.982,20.664ZM5.956,6.934l5.2,9.178a.959.959,0,0,1,.124.471v2.751l1.663-.416V16.586a.956.956,0,0,1,.131-.484l3.684-6.258H11.088l1.3,2.248.841-1.316a.624.624,0,0,1,1.052.672l-1.088,1.7a.955.955,0,0,1-1.644-.014L9.754,10.029A.956.956,0,0,1,10.581,8.6h3.8l.959-1.662Z" transform="translate(-4.498 -5.686)" fill="#23ae73"/>
</svg>
